<svg width="585" height="565" viewBox="0 0 585 565" fill="none" xmlns="http://www.w3.org/2000/svg">
<g clip-path="url(#clip0_12_369)" filter="url(#filter0_d_12_369)">
<path d="M530.418 556.444V500.585C530.418 500.585 552.223 540.187 530.418 556.444Z" fill="#F1F1F1"/>
<path d="M531.765 556.435L490.547 518.659C490.547 518.659 534.515 529.404 531.765 556.435Z" fill="#F1F1F1"/>
<path d="M386.388 246.469L167.666 374.091C166.9 374.537 165.989 374.661 165.132 374.437C164.275 374.212 163.542 373.657 163.094 372.894L22.4408 132.642C21.9945 131.878 21.8702 130.968 22.0949 130.113C22.3197 129.257 22.8753 128.525 23.6398 128.078L242.362 0.455278C243.128 0.00977099 244.039 -0.114397 244.896 0.110013C245.754 0.334423 246.486 0.889087 246.934 1.65232L387.587 241.904C388.034 242.668 388.158 243.578 387.933 244.434C387.708 245.29 387.153 246.021 386.388 246.469Z" fill="white"/>
<path d="M386.388 246.469L167.666 374.091C166.9 374.537 165.989 374.661 165.132 374.437C164.275 374.212 163.542 373.657 163.094 372.894L22.4408 132.642C21.9945 131.878 21.8702 130.968 22.0949 130.113C22.3197 129.257 22.8753 128.525 23.6398 128.078L242.362 0.455278C243.128 0.00977099 244.039 -0.114397 244.896 0.110013C245.754 0.334423 246.486 0.889087 246.934 1.65232L387.587 241.904C388.034 242.668 388.158 243.578 387.933 244.434C387.708 245.29 387.153 246.021 386.388 246.469ZM24.3144 129.23C23.8557 129.499 23.5223 129.938 23.3875 130.451C23.2526 130.964 23.3272 131.51 23.595 131.969L164.248 372.221C164.517 372.679 164.956 373.012 165.471 373.146C165.985 373.281 166.532 373.206 166.991 372.939L385.714 245.316C386.172 245.048 386.506 244.609 386.641 244.095C386.776 243.582 386.701 243.036 386.433 242.578L245.78 2.32576C245.511 1.86779 245.072 1.53497 244.557 1.40033C244.043 1.26568 243.496 1.34019 243.037 1.60752L24.3144 129.23Z" fill="#3F3D56"/>
<path d="M164.91 153.156L110.662 184.809C109.897 185.255 108.986 185.379 108.128 185.154C107.271 184.93 106.538 184.375 106.09 183.612L74.3844 129.455C73.9381 128.69 73.8138 127.781 74.0385 126.925C74.2633 126.069 74.8189 125.337 75.5834 124.89L129.831 93.237C130.597 92.7915 131.508 92.6673 132.365 92.8918C133.222 93.1162 133.955 93.6708 134.403 94.4341L166.109 148.592C166.555 149.356 166.68 150.266 166.455 151.121C166.23 151.977 165.675 152.709 164.91 153.156ZM76.258 126.042C75.7993 126.311 75.4659 126.75 75.3311 127.263C75.1962 127.777 75.2708 128.323 75.5386 128.781L107.245 182.939C107.513 183.397 107.953 183.729 108.467 183.864C108.982 183.999 109.528 183.924 109.988 183.657L164.236 152.004C164.694 151.735 165.028 151.296 165.163 150.783C165.297 150.269 165.223 149.724 164.955 149.265L133.249 95.1075C132.98 94.6496 132.541 94.3168 132.026 94.1821C131.512 94.0475 130.965 94.122 130.506 94.3893L76.258 126.042Z" fill="#F2F2F2"/>
<path d="M153.207 168.873L98.9594 200.527C98.2704 200.928 97.4503 201.039 96.6789 200.837C95.9074 200.635 95.2478 200.136 94.8446 199.449L63.1387 145.292C62.737 144.604 62.6251 143.785 62.8274 143.015C63.0297 142.245 63.5297 141.586 64.2178 141.184L118.466 109.531C119.155 109.13 119.975 109.018 120.746 109.22C121.518 109.422 122.177 109.921 122.58 110.608L154.286 164.766C154.688 165.453 154.8 166.272 154.598 167.042C154.395 167.812 153.895 168.471 153.207 168.873Z" fill="#46AEDB"/>
<path d="M284.144 128.029L114.475 227.029C113.786 227.431 112.966 227.543 112.194 227.341C111.422 227.139 110.763 226.64 110.36 225.952C109.958 225.264 109.845 224.445 110.048 223.675C110.25 222.904 110.751 222.246 111.439 221.844L281.108 122.844C281.449 122.645 281.826 122.515 282.217 122.461C282.609 122.408 283.007 122.432 283.389 122.532C283.771 122.632 284.13 122.806 284.444 123.044C284.759 123.283 285.024 123.581 285.223 123.921C285.422 124.262 285.552 124.638 285.606 125.029C285.66 125.419 285.636 125.817 285.536 126.198C285.435 126.58 285.261 126.938 285.022 127.252C284.783 127.566 284.485 127.83 284.144 128.029Z" fill="#CCCCCC"/>
<path d="M253.626 169.798L124.931 244.89C124.59 245.089 124.213 245.219 123.822 245.272C123.431 245.326 123.032 245.302 122.65 245.202C121.879 245 121.219 244.5 120.816 243.812C120.414 243.125 120.301 242.306 120.504 241.535C120.706 240.765 121.207 240.106 121.896 239.704L250.59 164.612C250.931 164.413 251.308 164.283 251.699 164.23C252.091 164.176 252.489 164.2 252.871 164.3C253.253 164.4 253.611 164.574 253.926 164.813C254.241 165.051 254.505 165.349 254.705 165.69C254.904 166.03 255.034 166.406 255.088 166.797C255.142 167.188 255.118 167.585 255.017 167.967C254.917 168.348 254.743 168.706 254.504 169.02C254.265 169.334 253.967 169.599 253.626 169.798V169.798Z" fill="#CCCCCC"/>
<path d="M245.115 62.6852L170.091 106.461C169.402 106.863 168.582 106.975 167.81 106.773C167.039 106.571 166.379 106.071 165.976 105.384C165.574 104.696 165.461 103.877 165.664 103.106C165.866 102.336 166.367 101.677 167.056 101.276L242.079 57.5C242.768 57.0981 243.588 56.9858 244.36 57.1878C244.742 57.2879 245.101 57.4621 245.415 57.7005C245.73 57.9389 245.995 58.2368 246.194 58.5773C246.393 58.9178 246.523 59.2941 246.577 59.6848C246.631 60.0755 246.607 60.4729 246.507 60.8544C246.406 61.2358 246.232 61.5939 245.993 61.908C245.754 62.2221 245.456 62.4862 245.115 62.6852Z" fill="#CCCCCC"/>
<path d="M236.848 91.4707L180.547 124.321C180.206 124.52 179.829 124.65 179.438 124.704C179.047 124.757 178.649 124.734 178.267 124.633C177.884 124.533 177.526 124.359 177.211 124.121C176.896 123.882 176.632 123.584 176.433 123.244C176.233 122.904 176.103 122.527 176.049 122.137C175.996 121.746 176.02 121.348 176.12 120.967C176.22 120.585 176.395 120.227 176.633 119.913C176.872 119.599 177.171 119.335 177.512 119.136L233.812 86.2854C234.501 85.8835 235.321 85.7712 236.093 85.9732C236.865 86.1753 237.524 86.6751 237.927 87.3627C238.329 88.0503 238.442 88.8694 238.239 89.6398C238.037 90.4102 237.536 91.0688 236.848 91.4707Z" fill="#CCCCCC"/>
<path d="M305.056 163.75L135.387 262.75C134.699 263.152 133.878 263.264 133.107 263.062C132.335 262.86 131.675 262.36 131.273 261.673C130.87 260.985 130.758 260.166 130.96 259.396C131.162 258.625 131.663 257.967 132.352 257.565L302.021 158.565C302.709 158.163 303.53 158.05 304.301 158.253C305.073 158.455 305.733 158.954 306.135 159.642C306.538 160.33 306.65 161.149 306.448 161.919C306.246 162.689 305.745 163.348 305.056 163.75V163.75Z" fill="#CCCCCC"/>
<path d="M274.538 205.518L145.844 280.61C145.503 280.809 145.126 280.939 144.734 280.993C144.343 281.047 143.945 281.023 143.563 280.923C143.181 280.823 142.822 280.648 142.507 280.41C142.193 280.172 141.928 279.874 141.729 279.533C141.53 279.193 141.399 278.816 141.346 278.426C141.292 278.035 141.316 277.638 141.416 277.256C141.516 276.875 141.691 276.517 141.93 276.202C142.169 275.888 142.467 275.624 142.808 275.425L271.502 200.333C271.843 200.134 272.22 200.004 272.612 199.951C273.003 199.897 273.401 199.921 273.783 200.021C274.165 200.121 274.524 200.295 274.839 200.534C275.153 200.772 275.418 201.07 275.617 201.411C275.816 201.751 275.947 202.127 276 202.518C276.054 202.909 276.03 203.306 275.93 203.688C275.83 204.069 275.655 204.427 275.416 204.741C275.177 205.055 274.879 205.319 274.538 205.518V205.518Z" fill="#CCCCCC"/>
<path d="M325.969 199.471L156.3 298.471C155.959 298.67 155.582 298.8 155.191 298.853C154.799 298.907 154.401 298.883 154.019 298.783C153.637 298.683 153.278 298.509 152.964 298.27C152.649 298.032 152.384 297.734 152.185 297.394C151.986 297.053 151.856 296.677 151.802 296.286C151.748 295.895 151.772 295.498 151.872 295.116C151.973 294.735 152.147 294.377 152.386 294.063C152.625 293.749 152.923 293.485 153.264 293.286L322.933 194.285C323.274 194.086 323.651 193.956 324.042 193.903C324.434 193.849 324.832 193.873 325.214 193.973C325.596 194.073 325.955 194.247 326.269 194.486C326.584 194.724 326.848 195.022 327.048 195.363C327.247 195.703 327.377 196.079 327.431 196.47C327.485 196.861 327.461 197.258 327.36 197.64C327.26 198.021 327.086 198.379 326.847 198.693C326.608 199.008 326.31 199.272 325.969 199.471Z" fill="#CCCCCC"/>
<path d="M336.425 217.331L166.756 316.331C166.415 316.53 166.038 316.66 165.647 316.714C165.255 316.768 164.857 316.744 164.475 316.644C164.093 316.544 163.735 316.369 163.42 316.131C163.105 315.893 162.841 315.595 162.641 315.254C162.442 314.914 162.312 314.537 162.258 314.147C162.205 313.756 162.228 313.358 162.329 312.977C162.429 312.596 162.603 312.238 162.842 311.923C163.081 311.609 163.379 311.345 163.72 311.146L333.389 212.146C333.73 211.947 334.107 211.817 334.499 211.763C334.89 211.71 335.288 211.734 335.67 211.834C336.052 211.934 336.411 212.108 336.725 212.346C337.04 212.585 337.305 212.883 337.504 213.223C337.703 213.564 337.834 213.94 337.887 214.331C337.941 214.722 337.917 215.119 337.817 215.5C337.716 215.882 337.542 216.24 337.303 216.554C337.064 216.868 336.766 217.132 336.425 217.331Z" fill="#CCCCCC"/>
<path d="M281.557 286.86C283.915 284.089 286.037 281.126 287.901 278.003C289.573 275.185 291.213 272.173 291.582 268.868C291.77 267.461 291.623 266.03 291.153 264.69C290.683 263.35 289.903 262.14 288.876 261.158C287.883 260.244 286.625 259.67 285.284 259.518C283.942 259.366 282.587 259.644 281.415 260.311C280.228 260.991 279.248 261.979 278.577 263.17C277.907 264.36 277.572 265.71 277.607 267.075C277.703 268.579 278.138 270.041 278.88 271.353C279.621 272.665 280.65 273.793 281.889 274.653C286.904 278.281 294.736 278.091 300.081 275.331C306.102 272.222 309.212 264.087 304.482 258.518C303.499 257.36 301.861 258.655 302.108 259.904C302.42 261.592 303.367 263.096 304.753 264.111C306.14 265.125 307.862 265.573 309.568 265.363C311.274 265.152 312.835 264.299 313.933 262.978C315.03 261.657 315.581 259.968 315.472 258.255L313.346 259.496C315.953 260.649 318.818 261.096 321.653 260.792C324.488 260.488 327.193 259.445 329.495 257.766C330.634 256.94 331.652 255.959 332.517 254.85C333.558 253.495 335.307 252.619 336.722 251.642L346.925 244.605C348.425 243.569 346.998 241.103 345.485 242.146L336.246 248.52C334.706 249.582 333.156 250.631 331.626 251.707C330.532 252.476 329.859 253.717 328.863 254.63C326.979 256.323 324.651 257.445 322.151 257.867C319.652 258.29 317.084 257.994 314.746 257.014C314.528 256.897 314.284 256.838 314.037 256.843C313.79 256.847 313.548 256.915 313.334 257.039C313.121 257.164 312.943 257.341 312.818 257.554C312.693 257.767 312.625 258.008 312.62 258.255C312.732 259.277 312.436 260.302 311.795 261.107C311.154 261.912 310.221 262.431 309.198 262.552C308.175 262.673 307.146 262.386 306.334 261.753C305.523 261.12 304.995 260.192 304.865 259.172L302.491 260.558C305.542 264.15 303.51 269.659 299.995 272.07C296.063 274.765 290.254 275.233 285.823 273.558C284.736 273.184 283.738 272.591 282.891 271.815C282.044 271.039 281.366 270.097 280.9 269.048C280.468 268.1 280.345 267.041 280.547 266.02C280.75 264.998 281.269 264.066 282.031 263.355C282.69 262.704 283.578 262.335 284.505 262.325C285.433 262.315 286.328 262.665 287.002 263.302C287.735 264.05 288.274 264.966 288.569 265.971C288.865 266.975 288.908 268.037 288.696 269.062C288.239 271.915 286.659 274.545 285.19 276.982C283.512 279.758 281.614 282.397 279.515 284.871C278.338 286.261 280.368 288.265 281.557 286.86L281.557 286.86Z" fill="#46AEDB"/>
<path d="M306.881 354.565C307.127 354.817 307.352 355.089 307.555 355.376L339.15 354.605L342.836 347.881L353.727 352.108L348.361 364.644C347.927 365.657 347.177 366.502 346.221 367.053C345.265 367.603 344.157 367.829 343.062 367.697L307.365 363.392C306.523 364.456 305.377 365.239 304.078 365.637C302.779 366.035 301.39 366.029 300.095 365.619C298.8 365.209 297.661 364.416 296.829 363.344C295.997 362.272 295.511 360.972 295.437 359.618C295.362 358.264 295.703 356.919 296.412 355.763C297.122 354.607 298.168 353.694 299.41 353.145C300.652 352.596 302.033 352.438 303.367 352.692C304.702 352.946 305.927 353.599 306.881 354.565Z" fill="#FFB7B7"/>
<path d="M409.875 546.122H399.486L394.544 506.118L409.876 506.119L409.875 546.122Z" fill="#FFB7B7"/>
<path d="M412.524 556.176L379.027 556.175V555.752C379.027 552.3 380.401 548.989 382.846 546.548C385.291 544.107 388.607 542.736 392.065 542.736H392.066L412.524 542.737L412.524 556.176Z" fill="#2F2E41"/>
<path d="M315.543 545.892L305.99 541.817L317.186 503.092L331.285 509.105L315.543 545.892Z" fill="#FFB7B7"/>
<path d="M314.024 556.176L283.22 543.038L283.386 542.649C284.745 539.475 287.311 536.969 290.52 535.683C293.729 534.397 297.318 534.437 300.498 535.793L300.498 535.793L319.312 543.817L314.024 556.176Z" fill="#2F2E41"/>
<path d="M359.379 363.231L358.628 375.384L380.587 377.73L403.563 380.184L396.8 361.73L359.379 363.231Z" fill="#FFB7B7"/>
<path d="M357.936 375.54L349.406 316.17L364.192 311.332L368.534 305.386L389.668 306.635L392.77 313.573L404.039 318.889L402.307 350.997L403.57 377.856L357.936 375.54Z" fill="#2F2E41"/>
<path d="M352.567 359.63L337.528 353.623L337.592 353.355C337.656 353.086 344.057 326.382 344.907 322.09C345.793 317.619 349.027 316.383 349.165 316.333L349.265 316.296L355.217 318.105L357.831 338.609L352.567 359.63Z" fill="#2F2E41"/>
<path d="M323.28 538.861L303.26 534.761L335.258 446.615L346.209 416.55C346.209 416.55 353.155 392.444 356.293 383.115L358.187 370.598L403.018 375.552C403.018 375.552 415.539 393.91 411.735 423.832L413.456 536.299L393.436 537.324L376.667 423.895L347.236 486.076C347.236 486.076 337.96 512.611 331.323 518.362L323.28 538.861Z" fill="#2F2E41"/>
<path d="M385.04 379.726C385.392 379.718 385.745 379.737 386.094 379.784L407.009 356.13L404.576 348.86L415.086 343.76L420.646 356.213C421.095 357.218 421.205 358.343 420.96 359.417C420.715 360.49 420.127 361.456 419.285 362.168L391.853 385.373C392.062 386.713 391.858 388.085 391.267 389.306C390.676 390.527 389.727 391.54 388.546 392.209C387.364 392.879 386.007 393.173 384.654 393.054C383.301 392.934 382.016 392.406 380.971 391.54C379.925 390.674 379.169 389.51 378.802 388.204C378.436 386.899 378.476 385.512 378.918 384.23C379.359 382.947 380.182 381.83 381.275 381.025C382.369 380.221 383.682 379.768 385.04 379.726Z" fill="#FFB7B7"/>
<path d="M405.34 358.432L396.615 337.944L400.018 323.673L403.684 319.049C403.953 318.934 404.242 318.876 404.534 318.879C404.826 318.882 405.115 318.945 405.381 319.065C406.733 319.608 407.885 321.273 408.803 324.014L416.98 347.265L405.34 358.432Z" fill="#2F2E41"/>
<path d="M360.075 297.795V282.349C360.075 276.859 362.259 271.595 366.147 267.713C370.035 263.832 375.309 261.651 380.807 261.651C386.306 261.651 391.579 263.832 395.467 267.713C399.355 271.595 401.539 276.859 401.539 282.349V297.795C401.538 298.532 401.245 299.238 400.723 299.76C400.2 300.281 399.493 300.574 398.754 300.575H362.86C362.122 300.574 361.414 300.281 360.892 299.76C360.37 299.238 360.076 298.532 360.075 297.795Z" fill="#2F2E41"/>
<path d="M376.547 300.215C384.942 300.215 391.747 293.421 391.747 285.04C391.747 276.66 384.942 269.866 376.547 269.866C368.152 269.866 361.347 276.66 361.347 285.04C361.347 293.421 368.152 300.215 376.547 300.215Z" fill="#FFB7B7"/>
<path d="M355.17 283.584C355.175 279.244 356.905 275.082 359.979 272.013C363.054 268.943 367.222 267.217 371.57 267.212H374.665C379.013 267.217 383.181 268.943 386.256 272.013C389.33 275.082 391.06 279.244 391.065 283.584V283.893H384.525L382.295 277.658L381.849 283.893H378.469L377.344 280.747L377.119 283.893H355.17L355.17 283.584Z" fill="#2F2E41"/>
<path d="M375.051 302.312C374.744 301.897 374.561 301.403 374.522 300.889C374.484 300.374 374.591 299.859 374.833 299.403C378.112 293.177 382.703 281.671 376.609 274.576L376.171 274.066H393.863V300.584L377.791 303.415C377.629 303.443 377.464 303.458 377.298 303.458C376.86 303.458 376.427 303.354 376.037 303.155C375.646 302.955 375.308 302.667 375.051 302.312Z" fill="#2F2E41"/>
<path d="M168.672 537.384L178.061 540.734L195.47 506.176L181.614 501.232L168.672 537.384Z" fill="#9F616A"/>
<path d="M163.025 545.616L167.373 533.47L185.862 540.067C188.985 541.185 191.536 543.494 192.956 546.487C194.375 549.481 194.547 552.914 193.435 556.034L193.298 556.416L163.025 545.616Z" fill="#2F2E41"/>
<path d="M229.723 546.655L239.693 546.654L244.437 508.263L229.721 508.263L229.723 546.655Z" fill="#9F616A"/>
<path d="M227.18 543.405L246.814 543.405H246.815C248.458 543.405 250.085 543.728 251.604 544.355C253.122 544.983 254.501 545.903 255.663 547.063C256.825 548.223 257.747 549.6 258.376 551.116C259.004 552.631 259.328 554.256 259.328 555.896V556.302L227.18 556.303L227.18 543.405Z" fill="#2F2E41"/>
<path d="M207.001 301.378L211.337 292.825C211.337 292.825 227.49 296.865 228.958 306.211L207.001 301.378Z" fill="#F1F1F1"/>
<path d="M189.11 399.181L200.902 464.873L169.592 520.151L188.297 527.458L220.013 473.874L224.079 459.26L226.519 535.577L243.388 535.065L251.122 463.804L238.717 397.557L189.11 399.181Z" fill="#2F2E41"/>
<path d="M211.494 414.711C194.171 414.711 183.172 411.403 182.926 411.351L182.527 411.266L191.55 369.502L191.956 330.979C191.956 314.655 202.718 302.619 204.212 301.508C204.463 300.517 204.928 299.593 205.575 298.8C206.221 298.007 207.033 297.365 207.953 296.918C211.543 295.292 215.93 297.243 216.115 297.327L229.282 302.255L229.344 302.438C229.502 302.905 246.845 359.743 246.845 359.743C246.845 359.743 245.795 409.405 245.429 411.032C245.429 411.032 221.119 414.711 211.494 414.711Z" fill="#3F3D56"/>
<path d="M224.804 290.132C234.633 290.132 242.6 282.177 242.6 272.365C242.6 262.553 234.633 254.599 224.804 254.599C214.976 254.599 207.009 262.553 207.009 272.365C207.009 282.177 214.976 290.132 224.804 290.132Z" fill="#9F616A"/>
<path opacity="0.2" d="M204.962 334.13L236.096 377.497L240.694 357.245L204.962 334.13Z" fill="black"/>
<path d="M302.573 363.637C301.698 364.328 300.681 364.82 299.594 365.077C298.508 365.333 297.378 365.349 296.285 365.123C295.192 364.897 294.162 364.434 293.267 363.767C292.372 363.1 291.635 362.246 291.107 361.264L264.309 365.546L270.115 352.715L294.672 350.616C296.383 349.839 298.321 349.717 300.116 350.271C301.912 350.825 303.442 352.018 304.416 353.623C305.39 355.228 305.74 357.134 305.401 358.979C305.061 360.825 304.055 362.482 302.573 363.637H302.573Z" fill="#9F616A"/>
<path d="M271.494 351.985L281.123 351.042L283.792 364.451L271.675 364.665L271.494 351.985Z" fill="#F1F1F1"/>
<path d="M279.388 369.124L232.23 364.932L208.418 327.126L208.345 326.792C207.669 323.704 208.143 320.475 209.676 317.71C211.21 314.944 213.7 312.83 216.68 311.763C219.661 310.696 222.929 310.748 225.873 311.91C228.818 313.072 231.239 315.264 232.683 318.077L246.661 345.297L274.871 349.554L279.388 369.124Z" fill="#3F3D56"/>
<path d="M209.646 287.791L224.417 288.32C225.317 288.352 227.761 278.652 228.081 276.639C228.334 275.329 229.055 274.156 230.111 273.338C231.168 272.52 232.486 272.115 233.82 272.196C234.925 272.3 237.713 270.238 240.59 267.796C246.053 263.16 245.768 254.453 239.768 250.536C239.604 250.429 239.443 250.331 239.285 250.242C235.5 248.127 231.072 247.417 226.735 247.363C222.803 247.314 218.759 247.808 215.295 249.666C209.085 252.997 205.78 260.276 205.489 267.308C205.199 274.34 207.457 281.217 210.02 287.773" fill="#2F2E41"/>
<path d="M579.919 557H4.77346C4.56832 557 4.37159 556.919 4.22654 556.774C4.08149 556.629 4 556.433 4 556.228C4 556.023 4.08149 555.827 4.22654 555.682C4.37159 555.537 4.56832 555.456 4.77346 555.456H580.227C580.432 555.456 580.628 555.537 580.773 555.682C580.918 555.827 581 556.023 581 556.228C581 556.654 580.346 557 579.919 557Z" fill="#CBCBCB"/>
</g>
<defs>
<filter id="filter0_d_12_369" x="0" y="0" width="585" height="565" filterUnits="userSpaceOnUse" color-interpolation-filters="sRGB">
<feFlood flood-opacity="0" result="BackgroundImageFix"/>
<feColorMatrix in="SourceAlpha" type="matrix" values="0 0 0 0 0 0 0 0 0 0 0 0 0 0 0 0 0 0 127 0" result="hardAlpha"/>
<feOffset dy="4"/>
<feGaussianBlur stdDeviation="2"/>
<feComposite in2="hardAlpha" operator="out"/>
<feColorMatrix type="matrix" values="0 0 0 0 0 0 0 0 0 0 0 0 0 0 0 0 0 0 0.25 0"/>
<feBlend mode="normal" in2="BackgroundImageFix" result="effect1_dropShadow_12_369"/>
<feBlend mode="normal" in="SourceGraphic" in2="effect1_dropShadow_12_369" result="shape"/>
</filter>
<clipPath id="clip0_12_369">
<rect width="577" height="557" fill="white" transform="translate(4)"/>
</clipPath>
</defs>
</svg>
