<svg width="765" height="169" viewBox="0 0 765 169" fill="none" xmlns="http://www.w3.org/2000/svg">
<path d="M396 96.075L394.83 97.6971L396 96.075ZM756.831 5.26603C756.386 4.25484 755.206 3.79547 754.195 4.23997L737.717 11.4836C736.706 11.9282 736.246 13.1082 736.691 14.1194C737.135 15.1306 738.316 15.59 739.327 15.1455L753.974 8.70664L760.413 23.3539C760.857 24.3651 762.037 24.8244 763.049 24.3799C764.06 23.9354 764.519 22.7553 764.075 21.7442L756.831 5.26603ZM3.87683 87.4337C4.21243 86.5222 4.56598 85.6104 4.93742 84.6989L1.23313 83.1895C0.844688 84.1428 0.474665 85.097 0.123171 86.0517L3.87683 87.4337ZM7.35991 79.2771C8.21641 77.5163 9.13951 75.7598 10.1288 74.0106L6.64702 72.0415C5.61779 73.8613 4.65617 75.691 3.76291 77.5273L7.35991 79.2771ZM13.194 68.944C14.2551 67.2992 15.3753 65.6641 16.5543 64.0413L13.3182 61.6902C12.0964 63.3719 10.9343 65.068 9.83273 66.7757L13.194 68.944ZM20.1908 59.3071C21.4275 57.7818 22.7174 56.2703 24.0602 54.7753L21.0842 52.1025C19.6969 53.6471 18.3632 55.2098 17.0837 56.7879L20.1908 59.3071ZM28.1396 50.4496C29.5261 49.0483 30.9608 47.6643 32.4434 46.2996L29.7345 43.3565C28.2064 44.763 26.7268 46.1903 25.2962 47.6362L28.1396 50.4496ZM36.9306 42.3533C38.434 41.0896 39.9807 39.8454 41.5704 38.6227L39.1316 35.4521C37.4965 36.7098 35.9048 37.9902 34.3568 39.2914L36.9306 42.3533ZM46.3998 35.0684C48.0096 33.935 49.6588 32.8231 51.3471 31.7344L49.1793 28.3727C47.4457 29.4907 45.7514 30.6329 44.097 31.7978L46.3998 35.0684ZM56.4312 28.5973C58.14 27.5888 59.885 26.6036 61.6662 25.6432L59.7679 22.1224C57.9415 23.1072 56.1515 24.1177 54.3982 25.1525L56.4312 28.5973ZM66.9568 22.9171C68.7387 22.0404 70.5537 21.1879 72.4017 20.3612L70.7682 16.7099C68.8759 17.5565 67.0166 18.4297 65.1909 19.328L66.9568 22.9171ZM77.8874 18.0229C79.7239 17.2779 81.5907 16.5579 83.4874 15.8639L82.113 12.1074C80.1731 12.8172 78.2633 13.5539 76.3839 14.3162L77.8874 18.0229ZM89.1434 13.902C91.0235 13.2848 92.9312 12.6928 94.8663 12.1271L93.7439 8.28782C91.7671 8.86575 89.8177 9.47065 87.8959 10.1015L89.1434 13.902ZM100.654 10.5354C102.568 10.0415 104.508 9.57276 106.473 9.13029L105.595 5.228C103.589 5.67952 101.609 6.15792 99.6545 6.66228L100.654 10.5354ZM112.356 7.89932C114.298 7.52344 116.263 7.17282 118.251 6.84829L117.607 2.90054C115.58 3.23135 113.577 3.58885 111.596 3.9722L112.356 7.89932ZM124.197 5.96562C126.161 5.70265 128.146 5.46481 130.152 5.25286L129.732 1.27499C127.689 1.49082 125.667 1.73308 123.666 2.001L124.197 5.96562ZM136.129 4.70372C138.112 4.54854 140.114 4.41833 142.136 4.31379L141.929 0.319123C139.872 0.425482 137.835 0.557975 135.817 0.715918L136.129 4.70372ZM148.117 4.08151C150.116 4.02936 152.133 4.00201 154.169 4.00011L154.165 0.000108393C152.096 0.00204282 150.045 0.0298385 148.013 0.0828723L148.117 4.08151ZM160.129 4.06662C162.133 4.113 164.154 4.18378 166.191 4.27953L166.379 0.283943C164.31 0.186708 162.257 0.114813 160.222 0.0676951L160.129 4.06662ZM172.144 4.62752C174.132 4.76632 176.136 4.92868 178.155 5.11508L178.522 1.13203C176.474 0.942894 174.441 0.778129 172.423 0.637233L172.144 4.62752ZM184.147 5.73444C186.113 5.95908 188.093 6.20633 190.087 6.47664L190.624 2.5129C188.603 2.23886 186.595 1.98814 184.602 1.7603L184.147 5.73444ZM196.11 7.35716C198.054 7.66191 200.012 7.9884 201.982 8.33704L202.679 4.39824C200.683 4.04506 198.7 3.71424 196.729 3.40541L196.11 7.35716ZM207.911 9.44589C209.875 9.83284 211.851 10.2416 213.839 10.6726L214.687 6.7634C212.674 6.32708 210.673 5.91319 208.684 5.52134L207.911 9.44589ZM219.661 11.99C221.613 12.4503 223.576 12.9318 225.551 13.4349L226.539 9.55873C224.541 9.04975 222.554 8.56253 220.579 8.09676L219.661 11.99ZM231.367 14.9703C233.279 15.4926 235.201 16.035 237.133 16.5979L238.252 12.7575C236.298 12.1884 234.354 11.64 232.421 11.1118L231.367 14.9703ZM242.961 18.3479C244.855 18.9337 246.759 19.5389 248.673 20.164L249.915 16.3617C247.981 15.7301 246.057 15.1185 244.143 14.5265L242.961 18.3479ZM254.363 22.0715C256.269 22.7268 258.185 23.4016 260.109 24.0962L261.467 20.3336C259.523 19.6322 257.589 18.9507 255.663 18.2888L254.363 22.0715ZM265.732 26.1716C267.589 26.8727 269.455 27.5921 271.33 28.33L272.795 24.608C270.903 23.8632 269.019 23.1371 267.144 22.4293L265.732 26.1716ZM276.978 30.5997C278.821 31.3553 280.672 32.1288 282.531 32.9203L284.098 29.2401C282.223 28.4415 280.355 27.6611 278.495 26.8986L276.978 30.5997ZM288.024 35.3016C289.862 36.1128 291.708 36.9416 293.561 37.7883L295.223 34.1499C293.354 33.2962 291.493 32.4603 289.639 31.642L288.024 35.3016ZM299.069 40.3464C300.855 41.1892 302.647 42.0484 304.446 42.9242L306.197 39.3278C304.383 38.445 302.577 37.5789 300.777 36.7292L299.069 40.3464ZM309.863 45.6017C311.675 46.5109 313.494 47.4369 315.32 48.3799L317.156 44.8258C315.316 43.8757 313.483 42.9426 311.656 42.0264L309.863 45.6017ZM320.603 51.1458C322.36 52.0781 324.124 53.026 325.893 53.9898L327.806 50.4771C326.024 49.5065 324.248 48.5516 322.478 47.6124L320.603 51.1458ZM331.218 56.9286C332.977 57.9112 334.741 58.9094 336.511 59.9233L338.499 56.4524C336.717 55.4315 334.94 54.4264 333.17 53.4369L331.218 56.9286ZM341.667 62.9116C343.391 63.9225 345.121 64.9483 346.856 65.989L348.914 62.5587C347.167 61.5112 345.426 60.4787 343.69 59.461L341.667 62.9116ZM352.078 69.1562C353.782 70.2014 355.492 71.261 357.206 72.3351L359.33 68.9453C357.604 67.8645 355.884 66.7983 354.169 65.7464L352.078 69.1562ZM362.256 75.5312C363.944 76.6106 365.637 77.7039 367.335 78.8115L369.52 75.4612C367.812 74.3471 366.109 73.2471 364.411 72.1612L362.256 75.5312ZM372.443 82.1767C374.104 83.2819 375.77 84.4005 377.441 85.5328L379.685 82.2217C378.005 81.083 376.33 79.9579 374.659 78.8463L372.443 82.1767ZM382.376 88.9087C384.026 90.0471 385.68 91.1988 387.338 92.3639L389.638 89.0909C387.97 87.9195 386.307 86.7614 384.648 85.6166L382.376 88.9087ZM392.326 95.8992C393.16 96.4951 393.994 97.0944 394.83 97.6971L397.17 94.4528C396.33 93.8469 395.491 93.2444 394.653 92.6452L392.326 95.8992ZM394.83 97.6971C395.662 98.2973 396.493 98.8931 397.322 99.4845L399.645 96.2287C398.822 95.641 397.997 95.0491 397.17 94.4528L394.83 97.6971ZM402.274 102.982C403.918 104.13 405.555 105.262 407.186 106.376L409.443 103.074C407.824 101.967 406.198 100.844 404.565 99.7028L402.274 102.982ZM412.057 109.669C413.711 110.775 415.359 111.863 416.999 112.934L419.186 109.585C417.558 108.522 415.922 107.442 414.28 106.344L412.057 109.669ZM422.106 116.226C423.8 117.304 425.487 118.363 427.167 119.404L429.274 116.004C427.608 114.972 425.935 113.921 424.253 112.851L422.106 116.226ZM432.183 122.472C433.898 123.506 435.605 124.521 437.303 125.517L439.326 122.065C437.642 121.078 435.949 120.072 434.249 119.047L432.183 122.472ZM442.554 128.546C444.296 129.535 446.029 130.504 447.754 131.453L449.682 127.948C447.973 127.008 446.256 126.048 444.53 125.068L442.554 128.546ZM452.904 134.238C454.703 135.194 456.493 136.128 458.273 137.041L460.097 133.481C458.335 132.578 456.563 131.653 454.782 130.706L452.904 134.238ZM463.653 139.744C465.436 140.622 467.21 141.479 468.975 142.313L470.685 138.697C468.94 137.872 467.185 137.025 465.42 136.155L463.653 139.744ZM474.372 144.809C476.232 145.65 478.081 146.466 479.92 147.258L481.502 143.584C479.686 142.802 477.858 141.996 476.02 141.164L474.372 144.809ZM485.404 149.561C487.242 150.312 489.068 151.039 490.884 151.742L492.327 148.011C490.535 147.318 488.733 146.601 486.919 145.859L485.404 149.561ZM496.583 153.88C498.471 154.566 500.347 155.226 502.212 155.86L503.499 152.072C501.661 151.448 499.811 150.797 497.949 150.121L496.583 153.88ZM507.821 157.698C509.775 158.315 511.717 158.903 513.646 159.462L514.76 155.621C512.862 155.07 510.95 154.491 509.025 153.883L507.821 157.698ZM519.393 161.055C521.329 161.567 523.252 162.05 525.162 162.504L526.087 158.612C524.21 158.166 522.319 157.691 520.415 157.188L519.393 161.055ZM531.08 163.828C533.038 164.239 534.982 164.619 536.912 164.969L537.626 161.034C535.733 160.69 533.824 160.316 531.901 159.913L531.08 163.828ZM542.849 165.961C544.854 166.266 546.843 166.538 548.816 166.778L549.3 162.808C547.366 162.572 545.417 162.305 543.451 162.006L542.849 165.961ZM554.708 167.406C556.747 167.591 558.769 167.742 560.774 167.859L561.008 163.866C559.046 163.752 557.067 163.604 555.07 163.422L554.708 167.406ZM566.74 168.11C568.767 168.162 570.776 168.178 572.767 168.161L572.732 164.161C570.786 164.178 568.823 164.162 566.841 164.111L566.74 168.11ZM578.783 168.002C580.793 167.913 582.785 167.789 584.758 167.631L584.438 163.644C582.513 163.798 580.569 163.919 578.606 164.006L578.783 168.002ZM590.776 167.035C592.767 166.801 594.738 166.53 596.691 166.226L596.074 162.274C594.171 162.571 592.249 162.834 590.308 163.063L590.776 167.035ZM602.662 165.176C604.632 164.791 606.582 164.369 608.511 163.914L607.592 160.021C605.712 160.465 603.813 160.875 601.893 161.251L602.662 165.176ZM614.371 162.408C616.309 161.869 618.225 161.295 620.12 160.688L618.899 156.879C617.053 157.47 615.187 158.029 613.3 158.554L614.371 162.408ZM625.831 158.732C627.721 158.044 629.589 157.321 631.436 156.565L629.921 152.863C628.122 153.599 626.302 154.303 624.461 154.974L625.831 158.732ZM636.969 154.175C638.799 153.342 640.607 152.477 642.394 151.581L640.6 148.005C638.858 148.879 637.096 149.723 635.312 150.534L636.969 154.175ZM647.724 148.78C649.484 147.813 651.223 146.815 652.94 145.788L650.887 142.355C649.211 143.357 647.515 144.331 645.797 145.274L647.724 148.78ZM658.047 142.607C659.731 141.516 661.393 140.397 663.035 139.251L660.744 135.972C659.141 137.092 657.517 138.185 655.872 139.25L658.047 142.607ZM667.904 135.727C669.508 134.524 671.09 133.296 672.652 132.044L670.149 128.924C668.621 130.149 667.073 131.35 665.505 132.526L667.904 135.727ZM677.278 128.212C678.799 126.91 680.3 125.585 681.781 124.239L679.089 121.28C677.639 122.599 676.168 123.897 674.678 125.172L677.278 128.212ZM686.161 120.135C687.602 118.746 689.021 117.337 690.421 115.909L687.564 113.109C686.19 114.511 684.797 115.894 683.385 117.256L686.161 120.135ZM694.561 111.567C695.921 110.101 697.261 108.618 698.581 107.119L695.58 104.475C694.282 105.949 692.965 107.406 691.629 108.846L694.561 111.567ZM702.487 102.57C703.77 101.037 705.033 99.4902 706.277 97.9294L703.149 95.4362C701.925 96.9724 700.682 98.4948 699.42 100.002L702.487 102.57ZM709.958 93.2003C711.167 91.6098 712.357 90.007 713.528 88.3935L710.29 86.0441C709.136 87.6343 707.964 89.2134 706.773 90.7799L709.958 93.2003ZM716.994 83.5078C718.132 81.8667 719.252 80.216 720.353 78.5571L717.02 76.3448C715.934 77.9815 714.83 79.6097 713.707 81.2279L716.994 83.5078ZM723.616 73.5351C724.687 71.8499 725.74 70.1578 726.775 68.4602L723.36 66.3781C722.338 68.0546 721.298 69.7253 720.24 71.3888L723.616 73.5351ZM729.845 63.3187C730.853 61.5952 731.843 59.8676 732.815 58.1372L729.327 56.1785C728.367 57.8889 727.388 59.5963 726.392 61.2992L729.845 63.3187ZM735.703 52.8901C736.651 51.1335 737.58 49.3755 738.492 47.6178L734.941 45.7761C734.04 47.5149 733.12 49.2537 732.183 50.9908L735.703 52.8901ZM741.209 42.2759C742.1 40.491 742.972 38.708 743.826 36.9283L740.22 35.1976C739.374 36.9594 738.511 38.7242 737.63 40.4905L741.209 42.2759ZM746.382 31.4993C747.218 29.6883 748.036 27.8824 748.836 26.0835L745.181 24.4585C744.388 26.2404 743.578 28.0289 742.75 29.8223L746.382 31.4993ZM751.236 20.581C752.023 18.7409 752.792 16.9099 753.542 15.0899L749.843 13.566C749.1 15.3697 748.339 17.1841 747.558 19.0073L751.236 20.581ZM755.785 9.54143C756.149 8.62297 756.509 7.70788 756.864 6.79641L753.136 5.34535C752.784 6.24896 752.428 7.15611 752.067 8.06655L755.785 9.54143Z" fill="#ADADAD"/>
</svg>
