<svg width="781" height="195" viewBox="0 0 781 195" fill="none" xmlns="http://www.w3.org/2000/svg">
<path d="M420 105.142L418.658 106.625L420 105.142ZM771.764 34.1988C771.243 33.2248 770.031 32.8574 769.057 33.3783L753.184 41.8666C752.21 42.3875 751.843 43.5994 752.363 44.5734C752.884 45.5474 754.096 45.9148 755.07 45.3939L769.18 37.8488L776.725 51.958C777.246 52.9321 778.457 53.2994 779.431 52.7785C780.405 52.2576 780.773 51.0458 780.252 50.0717L771.764 34.1988ZM3.64983 106.272C4.19492 105.477 4.75117 104.678 5.31854 103.876L2.05311 101.566C1.4743 102.384 0.906625 103.199 0.350166 104.011L3.64983 106.272ZM8.85553 99.0305C10.0203 97.4825 11.2248 95.9262 12.4687 94.3639L9.33952 91.8724C8.07304 93.4629 6.84615 95.0481 5.65929 96.6255L8.85553 99.0305ZM16.2483 89.7451C17.5118 88.2419 18.811 86.7355 20.1454 85.2282L17.1504 82.5768C15.7934 84.1096 14.4719 85.6419 13.1863 87.1714L16.2483 89.7451ZM24.1366 80.8318C25.4856 79.3823 26.8668 77.934 28.2799 76.4888L25.4198 73.6923C23.9837 75.1611 22.5798 76.6332 21.2085 78.1067L24.1366 80.8318ZM32.4673 72.3076C33.8831 70.9272 35.328 69.5514 36.8016 68.182L34.0787 65.2519C32.5815 66.6432 31.1135 68.0409 29.6749 69.4435L32.4673 72.3076ZM41.2014 64.1892C42.6799 62.8789 44.1851 61.5761 45.7165 60.2823L43.1351 57.2268C41.5794 58.541 40.0504 59.8645 38.5484 61.1956L41.2014 64.1892ZM50.3102 56.4932C51.8483 55.2548 53.411 54.0262 54.9979 52.8091L52.5636 49.6351C50.9515 50.8716 49.364 52.1196 47.8016 53.3777L50.3102 56.4932ZM59.7708 49.2376C61.3657 48.0734 62.9835 46.9213 64.624 45.7827L62.3433 42.4966C60.6765 43.6535 59.0328 44.824 57.4124 46.0067L59.7708 49.2376ZM69.5632 42.4418C71.2123 41.3549 72.883 40.2821 74.5749 39.2248L72.4551 35.8327C70.7356 36.9073 69.0378 37.9974 67.362 39.1019L69.5632 42.4418ZM79.6686 36.1271C81.3694 35.121 83.0904 34.1309 84.8314 33.158L82.8801 29.6662C81.1102 30.6553 79.3608 31.6617 77.6321 32.6843L79.6686 36.1271ZM90.0682 30.316C91.8177 29.3945 93.5864 28.4907 95.374 27.6056L93.5991 24.0209C91.7813 24.9209 89.9829 25.84 88.2041 26.7769L90.0682 30.316ZM100.742 25.0316C102.537 24.1985 104.35 23.3846 106.182 22.5909L104.591 18.9208C102.728 19.7281 100.884 20.5559 99.058 21.4032L100.742 25.0316ZM111.667 20.2967C113.505 19.5557 115.36 18.8354 117.232 18.1367L115.833 14.3892C113.929 15.1002 112.041 15.833 110.172 16.5869L111.667 20.2967ZM122.821 16.1331C124.698 15.4878 126.592 14.8643 128.501 14.2637L127.301 10.448C125.358 11.0592 123.431 11.6937 121.521 12.3504L122.821 16.1331ZM134.177 12.5605C136.085 12.0155 138.008 11.4934 139.946 10.9952L138.95 7.12108C136.977 7.62824 135.02 8.15969 133.078 8.71448L134.177 12.5605ZM145.708 9.59581C147.637 9.15433 149.581 8.73662 151.54 8.34354L150.753 4.42175C148.759 4.82191 146.78 5.24715 144.815 5.69658L145.708 9.59581ZM157.384 7.25198C159.329 6.91572 161.287 6.60385 163.259 6.31716L162.683 2.35877C160.676 2.65063 158.682 2.96814 156.702 3.31048L157.384 7.25198ZM169.177 5.53796C171.13 5.30761 173.095 5.10203 175.073 4.92199L174.711 0.938454C172.697 1.12173 170.696 1.33101 168.709 1.56552L169.177 5.53796ZM181.045 4.45918C183.003 4.33389 184.972 4.23368 186.953 4.15924L186.803 0.162061C184.787 0.237826 182.782 0.339823 180.79 0.46735L181.045 4.45918ZM192.918 4.01409C194.891 3.9921 196.876 3.99575 198.873 4.02571L198.933 0.0261595C196.901 -0.00432181 194.882 -0.00804067 192.873 0.014334L192.918 4.01409ZM204.806 4.19146C206.794 4.27266 208.794 4.38002 210.804 4.51418L211.071 0.52306C209.026 0.386603 206.992 0.277391 204.969 0.194786L204.806 4.19146ZM216.686 4.98095C218.656 5.162 220.635 5.36882 222.624 5.602L223.09 1.62919C221.068 1.39214 219.055 1.18186 217.053 0.997752L216.686 4.98095ZM228.543 6.3699C230.486 6.64612 232.437 6.94751 234.398 7.27459L235.056 3.32912C233.064 2.99678 231.081 2.6905 229.107 2.40976L228.543 6.3699ZM240.307 8.33343C242.234 8.70252 244.17 9.09649 246.115 9.51581L246.958 5.60569C244.983 5.17987 243.017 4.77975 241.059 4.40483L240.307 8.33343ZM251.914 10.8359C253.855 11.3011 255.805 11.7917 257.763 12.308L258.783 8.44019C256.796 7.9162 254.817 7.41831 252.846 6.94605L251.914 10.8359ZM263.443 13.8719C265.34 14.4164 267.245 14.9852 269.158 15.5787L270.344 11.7584C268.404 11.1565 266.471 10.5795 264.546 10.0271L263.443 13.8719ZM274.9 17.4277C276.749 18.0443 278.604 18.6841 280.466 19.3473L281.808 15.5792C279.921 14.907 278.04 14.2585 276.166 13.6333L274.9 17.4277ZM286.072 21.4077C287.941 22.116 289.818 22.848 291.7 23.6041L293.191 19.8922C291.284 19.1264 289.383 18.3848 287.489 17.6672L286.072 21.4077ZM297.139 25.8475C298.958 26.6176 300.783 27.4103 302.614 28.2257L304.242 24.5717C302.388 23.7463 300.541 22.9438 298.699 22.164L297.139 25.8475ZM308.126 30.7409C309.891 31.5659 311.661 32.4121 313.437 33.2799L315.193 29.6859C313.397 28.8081 311.605 27.952 309.819 27.1171L308.126 30.7409ZM318.764 35.9392C320.545 36.8472 322.332 37.7768 324.123 38.7284L325.999 35.1958C324.188 34.2338 322.382 33.2938 320.581 32.3756L318.764 35.9392ZM329.35 41.5591C331.067 42.5068 332.789 43.4746 334.516 44.4629L336.503 40.9914C334.758 39.9929 333.018 39.0149 331.283 38.0571L329.35 41.5591ZM339.709 47.4894C341.429 48.5092 343.153 49.5493 344.882 50.61L346.974 47.2005C345.228 46.1294 343.487 45.0789 341.75 44.0488L339.709 47.4894ZM349.877 53.7234C351.546 54.7803 353.219 55.8563 354.896 56.9518L357.083 53.6027C355.39 52.4972 353.702 51.411 352.017 50.344L349.877 53.7234ZM359.94 60.2963C361.578 61.3989 363.22 62.52 364.866 63.6598L367.144 60.3714C365.483 59.2216 363.826 58.0905 362.173 56.9779L359.94 60.2963ZM369.706 67.0575C371.323 68.208 372.943 69.3766 374.567 70.5634L376.927 67.3339C375.29 66.1372 373.656 64.9588 372.025 63.7984L369.706 67.0575ZM379.45 74.1788C381.019 75.3561 382.592 76.5505 384.168 77.7621L386.606 74.5908C385.017 73.3697 383.432 72.1658 381.85 70.9789L379.45 74.1788ZM388.844 81.3998C390.406 82.6293 391.971 83.8757 393.539 85.1392L396.049 82.0244C394.469 80.7515 392.892 79.4957 391.318 78.2568L388.844 81.3998ZM398.253 88.981C399.769 90.2304 401.287 91.4958 402.808 92.7774L405.385 89.7181C403.853 88.4275 402.324 87.153 400.797 85.8945L398.253 88.981ZM407.316 96.6148C408.822 97.9096 410.33 99.2203 411.841 100.547L414.48 97.5412C412.959 96.2057 411.441 94.8861 409.925 93.5823L407.316 96.6148ZM416.381 104.575C417.14 105.254 417.898 105.937 418.658 106.625L421.342 103.659C420.578 102.967 419.814 102.279 419.051 101.596L416.381 104.575ZM418.658 106.625C419.421 107.316 420.183 108.002 420.944 108.683L423.613 105.704C422.857 105.027 422.1 104.345 421.342 103.659L418.658 106.625ZM425.493 112.716C427.004 114.042 428.51 115.35 430.012 116.639L432.618 113.605C431.127 112.325 429.632 111.026 428.131 109.709L425.493 112.716ZM434.501 120.453C436.02 121.729 437.533 122.987 439.041 124.226L441.58 121.135C440.084 119.906 438.582 118.658 437.074 117.391L434.501 120.453ZM443.779 128.07C445.353 129.332 446.921 130.573 448.483 131.794L450.946 128.642C449.397 127.431 447.842 126.2 446.281 124.949L443.779 128.07ZM453.153 135.396C454.737 136.602 456.314 137.787 457.886 138.951L460.267 135.737C458.71 134.583 457.146 133.409 455.577 132.214L453.153 135.396ZM462.81 142.546C464.444 143.722 466.073 144.875 467.694 146.007L469.983 142.726C468.377 141.606 466.765 140.464 465.145 139.299L462.81 142.546ZM472.54 149.335C474.216 150.468 475.886 151.578 477.548 152.663L479.735 149.315C478.091 148.24 476.439 147.143 474.78 146.021L472.54 149.335ZM482.647 155.936C484.34 157.002 486.025 158.043 487.703 159.061L489.777 155.641C488.119 154.635 486.453 153.605 484.779 152.551L482.647 155.936ZM492.761 162.069C494.539 163.105 496.309 164.114 498.07 165.096L500.018 161.602C498.279 160.633 496.532 159.636 494.775 158.613L492.761 162.069ZM503.329 167.961C505.074 168.889 506.81 169.791 508.538 170.667L510.346 167.098C508.642 166.235 506.93 165.346 505.208 164.43L503.329 167.961ZM514.009 173.365C515.835 174.241 517.651 175.087 519.458 175.904L521.106 172.259C519.327 171.455 517.538 170.621 515.739 169.758L514.009 173.365ZM524.85 178.269C526.739 179.071 528.618 179.842 530.486 180.581L531.957 176.861C530.121 176.134 528.273 175.377 526.414 174.587L524.85 178.269ZM536.103 182.72C537.967 183.402 539.821 184.053 541.664 184.673L542.939 180.882C541.13 180.273 539.309 179.634 537.478 178.963L536.103 182.72ZM547.489 186.54C549.418 187.127 551.335 187.681 553.241 188.201L554.293 184.342C552.426 183.832 550.546 183.29 548.654 182.713L547.489 186.54ZM559.032 189.686C561.02 190.163 562.995 190.604 564.957 191.008L565.764 187.09C563.845 186.695 561.913 186.264 559.966 185.797L559.032 189.686ZM570.8 192.112C572.816 192.459 574.817 192.766 576.804 193.036L577.342 189.073C575.403 188.809 573.448 188.509 571.478 188.17L570.8 192.112ZM582.774 193.739C584.786 193.939 586.782 194.1 588.762 194.222L589.009 190.23C587.079 190.11 585.132 189.954 583.17 189.759L582.774 193.739ZM594.813 194.48C596.821 194.527 598.813 194.534 600.788 194.503L600.725 190.503C598.802 190.534 596.862 190.527 594.906 190.482L594.813 194.48ZM606.867 194.282C608.876 194.168 610.867 194.014 612.84 193.82L612.45 189.84C610.531 190.028 608.594 190.178 606.64 190.289L606.867 194.282ZM618.867 193.102C620.865 192.821 622.844 192.499 624.803 192.138L624.08 188.204C622.175 188.555 620.251 188.867 618.309 189.141L618.867 193.102ZM630.729 190.917C632.698 190.467 634.647 189.977 636.575 189.449L635.519 185.591C633.645 186.104 631.751 186.58 629.838 187.017L630.729 190.917ZM642.366 187.731C644.289 187.115 646.191 186.462 648.072 185.771L646.693 182.016C644.864 182.688 643.015 183.323 641.147 183.921L642.366 187.731ZM653.692 183.573C655.554 182.8 657.396 181.99 659.216 181.145L657.532 177.517C655.761 178.339 653.97 179.127 652.158 179.879L653.692 183.573ZM664.634 178.497C666.425 177.576 668.194 176.622 669.943 175.635L667.976 172.152C666.273 173.113 664.549 174.043 662.805 174.939L664.634 178.497ZM675.133 172.572C676.846 171.517 678.536 170.431 680.205 169.316L677.982 165.99C676.354 167.079 674.705 168.138 673.035 169.166L675.133 172.572ZM685.151 165.878C686.78 164.703 688.387 163.499 689.973 162.269L687.52 159.109C685.971 160.311 684.401 161.487 682.81 162.635L685.151 165.878ZM694.665 158.498C696.208 157.215 697.729 155.907 699.229 154.576L696.573 151.584C695.105 152.888 693.617 154.168 692.108 155.422L694.665 158.498ZM703.664 150.512C705.121 149.134 706.557 147.735 707.971 146.315L705.137 143.492C703.75 144.884 702.344 146.256 700.917 147.605L703.664 150.512ZM712.151 141.993C713.523 140.533 714.874 139.053 716.203 137.556L713.213 134.9C711.907 136.37 710.582 137.822 709.236 139.254L712.151 141.993ZM720.132 133.01C721.421 131.477 722.69 129.927 723.937 128.363L720.809 125.87C719.583 127.407 718.337 128.93 717.07 130.436L720.132 133.01ZM727.62 123.621C728.829 122.023 730.017 120.412 731.183 118.79L727.936 116.455C726.788 118.051 725.619 119.636 724.43 121.207L727.62 123.621ZM734.629 113.875C735.76 112.221 736.869 110.557 737.958 108.883L734.604 106.703C733.533 108.351 732.44 109.989 731.327 111.618L734.629 113.875ZM741.172 103.817C742.227 102.113 743.26 100.401 744.272 98.6835L740.826 96.6531C739.829 98.3459 738.81 100.033 737.771 101.712L741.172 103.817ZM747.262 93.4819C748.242 91.7328 749.201 89.9795 750.138 88.2235L746.608 86.341C745.685 88.0726 744.74 89.8014 743.773 91.5258L747.262 93.4819ZM752.907 82.8996C753.814 81.1109 754.699 79.3212 755.561 77.5323L751.957 75.7961C751.107 77.5608 750.234 79.3261 749.34 81.0903L752.907 82.8996ZM758.113 72.0948C758.946 70.2715 759.756 68.4508 760.543 66.6345L756.872 65.0449C756.096 66.8368 755.297 68.6331 754.475 70.4319L758.113 72.0948ZM762.879 61.0884C763.637 59.2357 764.37 57.3897 765.08 55.5522L761.348 54.112C760.648 55.9245 759.925 57.7456 759.177 59.5733L762.879 61.0884ZM767.195 49.8988C767.88 48.0084 768.539 46.1296 769.171 44.2646L765.383 42.9804C764.759 44.8191 764.11 46.6717 763.434 48.5359L767.195 49.8988ZM771.042 38.5446C771.339 37.5994 771.63 36.6585 771.914 35.7222L768.086 34.5618C767.806 35.4842 767.52 36.4112 767.226 37.3426L771.042 38.5446Z" fill="#D0D0D0"/>
</svg>
